<svg width="302" height="58" viewBox="0 0 302 58" fill="none" xmlns="http://www.w3.org/2000/svg">
<path d="M3.44318 46V11.0909H9.76705V40.6989H25.142V46H3.44318ZM30.6307 46V11.0909H53.3352V16.392H36.9545V25.8693H52.1591V31.1705H36.9545V40.6989H53.4716V46H30.6307ZM78.7585 20.6875C78.5994 19.1989 77.929 18.0398 76.7472 17.2102C75.5767 16.3807 74.054 15.9659 72.179 15.9659C70.8608 15.9659 69.7301 16.1648 68.7869 16.5625C67.8438 16.9602 67.1222 17.5 66.6222 18.1818C66.1222 18.8636 65.8665 19.642 65.8551 20.517C65.8551 21.2443 66.0199 21.875 66.3494 22.4091C66.6903 22.9432 67.1506 23.3977 67.7301 23.7727C68.3097 24.1364 68.9517 24.4432 69.6562 24.6932C70.3608 24.9432 71.071 25.1534 71.7869 25.3239L75.0597 26.142C76.3778 26.4489 77.6449 26.8636 78.8608 27.3864C80.0881 27.9091 81.1847 28.5682 82.1506 29.3636C83.1278 30.1591 83.9006 31.1193 84.4688 32.2443C85.0369 33.3693 85.321 34.6875 85.321 36.1989C85.321 38.2443 84.7983 40.0455 83.7528 41.6023C82.7074 43.1477 81.196 44.358 79.2188 45.233C77.2528 46.0966 74.8722 46.5284 72.0767 46.5284C69.3608 46.5284 67.0028 46.108 65.0028 45.267C63.0142 44.4261 61.4574 43.1989 60.3324 41.5852C59.2188 39.9716 58.6165 38.0057 58.5256 35.6875H64.7472C64.8381 36.9034 65.2131 37.9148 65.8722 38.7216C66.5313 39.5284 67.3892 40.1307 68.446 40.5284C69.5142 40.9261 70.7074 41.125 72.0256 41.125C73.4006 41.125 74.6051 40.9205 75.6392 40.5114C76.6847 40.0909 77.5028 39.5114 78.0938 38.7727C78.6847 38.0227 78.9858 37.1477 78.9972 36.1477C78.9858 35.2386 78.7188 34.4886 78.196 33.8977C77.6733 33.2955 76.9403 32.7955 75.9972 32.3977C75.0653 31.9886 73.9744 31.625 72.7244 31.3068L68.7528 30.2841C65.8778 29.5455 63.6051 28.4261 61.9347 26.9261C60.2756 25.4148 59.446 23.4091 59.446 20.9091C59.446 18.8523 60.0028 17.0511 61.1165 15.5057C62.2415 13.9602 63.7699 12.7614 65.7017 11.9091C67.6335 11.0455 69.821 10.6136 72.2642 10.6136C74.7415 10.6136 76.9119 11.0455 78.7756 11.9091C80.6506 12.7614 82.1222 13.9489 83.1903 15.4716C84.2585 16.983 84.8097 18.7216 84.8438 20.6875H78.7585ZM109.93 20.6875C109.771 19.1989 109.101 18.0398 107.919 17.2102C106.749 16.3807 105.226 15.9659 103.351 15.9659C102.033 15.9659 100.902 16.1648 99.9588 16.5625C99.0156 16.9602 98.294 17.5 97.794 18.1818C97.294 18.8636 97.0384 19.642 97.027 20.517C97.027 21.2443 97.1918 21.875 97.5213 22.4091C97.8622 22.9432 98.3224 23.3977 98.902 23.7727C99.4815 24.1364 100.124 24.4432 100.828 24.6932C101.533 24.9432 102.243 25.1534 102.959 25.3239L106.232 26.142C107.55 26.4489 108.817 26.8636 110.033 27.3864C111.26 27.9091 112.357 28.5682 113.322 29.3636C114.3 30.1591 115.072 31.1193 115.641 32.2443C116.209 33.3693 116.493 34.6875 116.493 36.1989C116.493 38.2443 115.97 40.0455 114.925 41.6023C113.879 43.1477 112.368 44.358 110.391 45.233C108.425 46.0966 106.044 46.5284 103.249 46.5284C100.533 46.5284 98.1747 46.108 96.1747 45.267C94.1861 44.4261 92.6293 43.1989 91.5043 41.5852C90.3906 39.9716 89.7884 38.0057 89.6974 35.6875H95.919C96.0099 36.9034 96.3849 37.9148 97.044 38.7216C97.7031 39.5284 98.5611 40.1307 99.6179 40.5284C100.686 40.9261 101.879 41.125 103.197 41.125C104.572 41.125 105.777 40.9205 106.811 40.5114C107.857 40.0909 108.675 39.5114 109.266 38.7727C109.857 38.0227 110.158 37.1477 110.169 36.1477C110.158 35.2386 109.891 34.4886 109.368 33.8977C108.845 33.2955 108.112 32.7955 107.169 32.3977C106.237 31.9886 105.146 31.625 103.896 31.3068L99.9247 30.2841C97.0497 29.5455 94.777 28.4261 93.1065 26.9261C91.4474 25.4148 90.6179 23.4091 90.6179 20.9091C90.6179 18.8523 91.1747 17.0511 92.2884 15.5057C93.4134 13.9602 94.9418 12.7614 96.8736 11.9091C98.8054 11.0455 100.993 10.6136 103.436 10.6136C105.913 10.6136 108.084 11.0455 109.947 11.9091C111.822 12.7614 113.294 13.9489 114.362 15.4716C115.43 16.983 115.982 18.7216 116.016 20.6875H109.93ZM153.324 28.5455C153.324 32.3068 152.619 35.5284 151.21 38.2102C149.813 40.8807 147.903 42.9261 145.483 44.3466C143.074 45.767 140.341 46.4773 137.284 46.4773C134.227 46.4773 131.489 45.767 129.068 44.3466C126.659 42.9148 124.75 40.8636 123.341 38.1932C121.943 35.5114 121.244 32.2955 121.244 28.5455C121.244 24.7841 121.943 21.5682 123.341 18.8977C124.75 16.2159 126.659 14.1648 129.068 12.7443C131.489 11.3239 134.227 10.6136 137.284 10.6136C140.341 10.6136 143.074 11.3239 145.483 12.7443C147.903 14.1648 149.813 16.2159 151.21 18.8977C152.619 21.5682 153.324 24.7841 153.324 28.5455ZM146.966 28.5455C146.966 25.8977 146.551 23.6648 145.722 21.8466C144.903 20.017 143.767 18.6364 142.312 17.7045C140.858 16.7614 139.182 16.2898 137.284 16.2898C135.386 16.2898 133.71 16.7614 132.256 17.7045C130.801 18.6364 129.659 20.017 128.83 21.8466C128.011 23.6648 127.602 25.8977 127.602 28.5455C127.602 31.1932 128.011 33.4318 128.83 35.2614C129.659 37.0795 130.801 38.4602 132.256 39.4034C133.71 40.3352 135.386 40.8011 137.284 40.8011C139.182 40.8011 140.858 40.3352 142.312 39.4034C143.767 38.4602 144.903 37.0795 145.722 35.2614C146.551 33.4318 146.966 31.1932 146.966 28.5455ZM187.99 11.0909V46H182.365L165.916 22.2216H165.626V46H159.303V11.0909H164.962L181.393 34.8864H181.7V11.0909H187.99Z" fill="white"/>
<rect x="198" width="104" height="58" fill="#C96E6E"/>
<path d="M206.045 46V11.0909H208.176V44.0227H225.222V46H206.045ZM259.453 28.5455C259.453 32.1477 258.828 35.2955 257.578 37.9886C256.328 40.6705 254.589 42.7557 252.362 44.2443C250.146 45.733 247.589 46.4773 244.692 46.4773C241.783 46.4773 239.214 45.733 236.987 44.2443C234.771 42.7443 233.038 40.6534 231.788 37.9716C230.538 35.2784 229.913 32.1364 229.913 28.5455C229.913 24.9432 230.538 21.8011 231.788 19.1193C233.05 16.4375 234.788 14.3523 237.004 12.8636C239.22 11.3636 241.783 10.6136 244.692 10.6136C247.589 10.6136 250.146 11.358 252.362 12.8466C254.589 14.3352 256.328 16.4261 257.578 19.1193C258.828 21.8011 259.453 24.9432 259.453 28.5455ZM257.374 28.5455C257.374 25.3068 256.828 22.5 255.737 20.125C254.658 17.75 253.163 15.9148 251.254 14.6193C249.345 13.3125 247.158 12.6591 244.692 12.6591C242.226 12.6591 240.038 13.3068 238.129 14.6023C236.22 15.8864 234.72 17.7216 233.629 20.108C232.55 22.483 232.01 25.2955 232.01 28.5455C232.01 31.7614 232.544 34.5625 233.612 36.9489C234.692 39.3239 236.186 41.1648 238.095 42.4716C240.004 43.7784 242.203 44.4318 244.692 44.4318C247.158 44.4318 249.345 43.7841 251.254 42.4886C253.163 41.1818 254.658 39.3409 255.737 36.9659C256.828 34.5909 257.374 31.7841 257.374 28.5455ZM292.24 22C291.979 20.8182 291.536 19.6761 290.911 18.5739C290.286 17.4602 289.484 16.4602 288.507 15.5739C287.541 14.6761 286.405 13.9659 285.098 13.4432C283.803 12.9205 282.348 12.6591 280.734 12.6591C278.268 12.6591 276.081 13.3068 274.172 14.6023C272.274 15.8864 270.786 17.7216 269.706 20.108C268.638 22.483 268.104 25.2955 268.104 28.5455C268.104 31.7614 268.638 34.5625 269.706 36.9489C270.774 39.3352 272.268 41.1818 274.189 42.4886C276.121 43.7841 278.365 44.4318 280.922 44.4318C283.206 44.4318 285.229 43.9034 286.99 42.8466C288.763 41.7898 290.143 40.2784 291.132 38.3125C292.121 36.3466 292.604 33.9943 292.581 31.2557L293.331 31.6136H281.467V29.6364H294.661V31.6136C294.661 34.6932 294.07 37.3466 292.888 39.5739C291.717 41.7898 290.092 43.4943 288.013 44.6875C285.945 45.8807 283.581 46.4773 280.922 46.4773C277.922 46.4773 275.303 45.733 273.064 44.2443C270.825 42.7557 269.087 40.6705 267.848 37.9886C266.621 35.2955 266.007 32.1477 266.007 28.5455C266.007 25.8409 266.359 23.3864 267.064 21.1818C267.768 18.9773 268.774 17.0909 270.081 15.5227C271.388 13.9432 272.945 12.733 274.751 11.892C276.558 11.0398 278.553 10.6136 280.734 10.6136C282.712 10.6136 284.49 10.9432 286.07 11.6023C287.649 12.25 289.013 13.125 290.161 14.2273C291.32 15.3182 292.257 16.5398 292.973 17.892C293.689 19.233 294.172 20.6023 294.422 22H292.24Z" fill="white"/>
</svg>
